<svg xmlns="http://www.w3.org/2000/svg" viewBox="0 0 1818.89197 398.35294">
  <defs>
    <style>
      .cls-1 {
        fill: #fff;
      }

      .cls-2 {
        fill: #f15a24;
      }
    </style>
  </defs>
  <title>Ресурс 2</title>
  <g id="Слой_2" data-name="Слой 2">
    <g id="Слой_1-2" data-name="Слой 1">
      <path class="cls-1" d="M1331.888,319.85865V145.04l-67.10573,89.76159a24.79853,24.79853,0,0,1-40.1775,0L1157.49906,145.04V319.85865a25.006,25.006,0,0,1-50.0101,0V70.24153a24.90206,24.90206,0,0,1,25.21806-24.792,24.10353,24.10353,0,0,1,19.66274,9.83137l92.32256,123.09838,92.32746-123.09838a24.09734,24.09734,0,0,1,19.66029-9.83137,24.90234,24.90234,0,0,1,25.21928,24.792V319.85865a25.00658,25.00658,0,0,1-50.01133,0Z"/>
      <path class="cls-1" d="M1607.53961,245.06019c0,54.71093-44.87957,99.5905-100.01774,99.5905-54.71094,0-99.5905-44.87957-99.5905-99.5905,0-55.14063,44.87956-100.0202,99.5905-100.0202A100.14671,100.14671,0,0,1,1607.53961,245.06019Zm-50.00887,0a49.79571,49.79571,0,1,0-50.00887,49.58163A49.803,49.803,0,0,0,1557.53074,245.06019Z"/>
      <path class="cls-1" d="M1818.892,245.06019c0,54.71093-41.8889,99.5905-93.17949,99.5905a87.1157,87.1157,0,0,1-46.591-13.24927,25.36739,25.36739,0,0,1-22.22616,13.24927,24.80857,24.80857,0,0,1-24.78959-24.792V70.24153a25.00534,25.00534,0,0,1,50.00887,0v86.33878A88.47385,88.47385,0,0,1,1725.71248,145.04C1777.00307,145.04,1818.892,189.91956,1818.892,245.06019Zm-49.58163,0c0-27.78271-19.66274-50.01133-43.59786-50.01133-24.36235,0-43.59785,22.22862-43.59785,50.01133,0,27.35547,19.2355,49.58163,43.59785,49.58163C1749.6476,294.64182,1769.31034,272.41566,1769.31034,245.06019Z"/>
      <path class="cls-1" d="M701.719,310.457a24.36519,24.36519,0,0,1,1.709,9.40168c0,12.82448-9.83014,24.792-24.79081,24.792a24.85544,24.85544,0,0,1-23.08064-15.81515L636.7495,282.247H520.91661l-18.807,46.58851a24.85708,24.85708,0,0,1-23.08187,15.81515c-14.53221,0-24.79081-12.39479-24.79081-24.792a22.98377,22.98377,0,0,1,1.71017-9.40168L555.53757,61.26464a25.06452,25.06452,0,0,1,46.58974,0Zm-85.05829-77.79158-37.61408-95.31813-38.04131,95.31813Z"/>
      <path class="cls-1" d="M829.86447,170.25927a24.90294,24.90294,0,0,1-25.21682,24.78959H779.8556V319.85865a24.80857,24.80857,0,0,1-24.78959,24.792c-13.679,0-25.21928-11.11308-25.21928-24.792V195.04886H717.45194a24.80858,24.80858,0,0,1-24.79205-24.78959c0-13.6765,11.11308-25.21682,24.79205-25.21682h12.39479V120.2504a84.00815,84.00815,0,0,1,8.9769-35.90512c12.39479-25.21683,35.90267-38.89334,65.824-38.89334a25.00412,25.00412,0,1,1,0,50.00642c-13.25173,0-17.95134,5.13176-20.51722,10.25861a32.04185,32.04185,0,0,0-4.27483,14.53343v24.79205h24.79205A25.2634,25.2634,0,0,1,829.86447,170.25927Z"/>
      <path class="cls-1" d="M993.70264,170.25927a24.90294,24.90294,0,0,1-25.21683,24.78959h-24.792V319.85865a24.80858,24.80858,0,0,1-24.78959,24.792c-13.679,0-25.21928-11.11308-25.21928-24.792V195.04886H881.2901a24.80857,24.80857,0,0,1-24.792-24.78959c0-13.6765,11.11308-25.21682,24.792-25.21682h12.3948V120.2504a84.00807,84.00807,0,0,1,8.97689-35.90512c12.3948-25.21683,35.90267-38.89334,65.824-38.89334a25.00412,25.00412,0,1,1,0,50.00642c-13.25172,0-17.95133,5.13176-20.51721,10.25861a32.04172,32.04172,0,0,0-4.27483,14.53343v24.79205h24.792A25.2634,25.2634,0,0,1,993.70264,170.25927Z"/>
      <path class="cls-1" d="M1047.22026,108.28284a25.00536,25.00536,0,0,1,0-50.00887c13.679,0,25.21928,11.11309,25.21928,24.78959A25.26444,25.26444,0,0,1,1047.22026,108.28284Zm-24.78959,211.57581V170.25927c0-13.6765,11.11308-25.21682,24.78959-25.21682a25.545,25.545,0,0,1,25.21928,25.21682V319.85865c0,13.679-11.54032,24.792-25.21928,24.792A24.80857,24.80857,0,0,1,1022.43067,319.85865Z"/>
      <g>
        <polygon class="cls-2" points="0 398.353 386.971 4.878 21.137 240.638 0 398.353"/>
        <g>
          <path class="cls-2" d="M309.67344,128.385A127.54461,127.54461,0,0,1,195.92461,313.80456c-.24214,0-.48032-.01667-.72206-.01826l-34.13144,55.28005a187.12812,187.12812,0,0,0,34.8535,3.27171c102.81826,0,186.169-83.35037,186.169-186.169A185.33941,185.33941,0,0,0,343.813,73.09145Z"/>
          <path class="cls-2" d="M72.07008,325.14717l41.052-41.96456A127.558,127.558,0,1,1,291.10128,101.24592l41.04363-41.95583A185.64856,185.64856,0,0,0,195.92461,0C93.10635,0,9.75558,83.35037,9.75558,186.169A185.69534,185.69534,0,0,0,72.07008,325.14717Z"/>
        </g>
      </g>
    </g>
  </g>
</svg>
