<svg xmlns="http://www.w3.org/2000/svg" viewBox="0 0 386.97143 398.35294">
  <defs>
    <style>
      .cls-1 {
        fill: #f15a24;
      }
    </style>
  </defs>
  <title>Ресурс 3</title>
  <g id="Слой_2" data-name="Слой 2">
    <g id="Слой_1-2" data-name="Слой 1">
      <g>
        <polygon class="cls-1" points="0 398.353 386.971 4.878 21.137 240.638 0 398.353"/>
        <g>
          <path class="cls-1" d="M309.67344,128.385A127.54461,127.54461,0,0,1,195.92461,313.80456c-.24214,0-.48032-.01667-.72206-.01826l-34.13144,55.28005a187.12812,187.12812,0,0,0,34.8535,3.27171c102.81826,0,186.169-83.35037,186.169-186.169A185.33941,185.33941,0,0,0,343.813,73.09145Z"/>
          <path class="cls-1" d="M72.07008,325.14717l41.052-41.96456A127.558,127.558,0,1,1,291.10128,101.24592l41.04363-41.95583A185.64856,185.64856,0,0,0,195.92461,0C93.10635,0,9.75558,83.35037,9.75558,186.169A185.69534,185.69534,0,0,0,72.07008,325.14717Z"/>
        </g>
      </g>
    </g>
  </g>
</svg>
