<svg xmlns="http://www.w3.org/2000/svg" viewBox="0 0 1364.65509 299.2012">
  <defs>
    <style>
      .cls-1 {
        fill: #fff;
      }
    </style>
  </defs>
  <title>Ресурс 4</title>
  <g id="Слой_2" data-name="Слой 2">
    <g id="Слой_1-2" data-name="Слой 1">
      <path class="cls-1" d="M877.65114,274.40916V99.5905l-67.10573,89.76159a24.79853,24.79853,0,0,1-40.1775,0L703.26217,99.5905V274.40916a25.006,25.006,0,0,1-50.01009,0V24.792A24.90206,24.90206,0,0,1,678.47013,0a24.10351,24.10351,0,0,1,19.66274,9.83137l92.32256,123.09838L882.7829,9.83137A24.09732,24.09732,0,0,1,902.44318,0a24.90234,24.90234,0,0,1,25.21928,24.792V274.40916a25.00657,25.00657,0,0,1-50.01132,0Z"/>
      <path class="cls-1" d="M1153.30272,199.6107c0,54.71094-44.87956,99.5905-100.01774,99.5905-54.71093,0-99.5905-44.87956-99.5905-99.5905,0-55.14063,44.87957-100.0202,99.5905-100.0202A100.1467,100.1467,0,0,1,1153.30272,199.6107Zm-50.00887,0a49.79571,49.79571,0,1,0-50.00887,49.58163A49.803,49.803,0,0,0,1103.29385,199.6107Z"/>
      <path class="cls-1" d="M1364.65509,199.6107c0,54.71094-41.88891,99.5905-93.17949,99.5905a87.11575,87.11575,0,0,1-46.591-13.24926,25.36743,25.36743,0,0,1-22.22617,13.24926,24.80858,24.80858,0,0,1-24.78959-24.792V24.792a25.00534,25.00534,0,0,1,50.00887,0v86.33878A88.47389,88.47389,0,0,1,1271.4756,99.5905C1322.76618,99.5905,1364.65509,144.47007,1364.65509,199.6107Zm-49.58164,0c0-27.78271-19.66274-50.01133-43.59785-50.01133-24.36235,0-43.59786,22.22862-43.59786,50.01133,0,27.35547,19.23551,49.58163,43.59786,49.58163C1295.41071,249.19233,1315.07345,226.96617,1315.07345,199.6107Z"/>
      <path class="cls-1" d="M247.48216,265.00748a24.36538,24.36538,0,0,1,1.709,9.40168c0,12.82449-9.83015,24.792-24.79082,24.792a24.85544,24.85544,0,0,1-23.08064-15.81514l-18.807-46.58852H66.67972l-18.807,46.58852A24.85705,24.85705,0,0,1,24.79082,299.2012C10.25861,299.2012,0,286.80641,0,274.40916a22.98377,22.98377,0,0,1,1.71018-9.40168l99.5905-249.19233a25.06453,25.06453,0,0,1,46.58975,0Zm-85.0583-77.79157L124.80979,91.89778,86.76847,187.21591Z"/>
      <path class="cls-1" d="M375.62759,124.80979a24.903,24.903,0,0,1-25.21683,24.78958h-24.792V274.40916a24.80858,24.80858,0,0,1-24.78959,24.792c-13.679,0-25.21929-11.11308-25.21929-24.792V149.59937H263.21505a24.80857,24.80857,0,0,1-24.792-24.78958c0-13.67651,11.11308-25.21683,24.792-25.21683h12.39479v-24.792a84.00818,84.00818,0,0,1,8.9769-35.90513C296.98153,13.679,320.48941.00246,350.41076.00246a25.00412,25.00412,0,1,1,0,50.00641c-13.25172,0-17.95134,5.13176-20.51722,10.25861a32.0418,32.0418,0,0,0-4.27482,14.53344V99.593h24.792A25.26341,25.26341,0,0,1,375.62759,124.80979Z"/>
      <path class="cls-1" d="M539.46575,124.80979a24.90294,24.90294,0,0,1-25.21683,24.78958h-24.792V274.40916a24.80857,24.80857,0,0,1-24.78959,24.792c-13.679,0-25.21928-11.11308-25.21928-24.792V149.59937H427.05322a24.80857,24.80857,0,0,1-24.79205-24.78958c0-13.67651,11.11308-25.21683,24.79205-25.21683H439.448v-24.792a84.00818,84.00818,0,0,1,8.9769-35.90513C460.8197,13.679,484.32758.00246,514.24892.00246a25.00412,25.00412,0,1,1,0,50.00641c-13.25172,0-17.95133,5.13176-20.51721,10.25861a32.04172,32.04172,0,0,0-4.27483,14.53344V99.593h24.792A25.2634,25.2634,0,0,1,539.46575,124.80979Z"/>
      <path class="cls-1" d="M592.98337,62.83336a25.00536,25.00536,0,0,1,0-50.00887c13.679,0,25.21928,11.11308,25.21928,24.78959A25.26444,25.26444,0,0,1,592.98337,62.83336Zm-24.78959,211.5758V124.80979c0-13.67651,11.11308-25.21683,24.78959-25.21683a25.545,25.545,0,0,1,25.21928,25.21683V274.40916c0,13.679-11.54032,24.792-25.21928,24.792A24.80857,24.80857,0,0,1,568.19378,274.40916Z"/>
    </g>
  </g>
</svg>
