<svg xmlns="http://www.w3.org/2000/svg" viewBox="0 0 75.0322 54.40752">
  <defs>
    <style>
      .cls-1 {
        fill: #545862;
      }
    </style>
  </defs>
  <title>wapaff</title>
  <g id="Слой_2" data-name="Слой 2">
    <g id="Слой_1-2" data-name="Слой 1">
      <g>
        <path class="cls-1" d="M10.06315,40.30509l4.03928,7.84-2.14687,2.14687L7.82375,48.07705l2.1631,4.1836L7.84,54.40752,0,50.36824,2.06193,48.3063,6.4741,50.64825,4.19154,46.1767,6.0332,44.335l4.45463,2.38442-2.325-4.514Z"/>
        <path class="cls-1" d="M19.24484,40.93244l-2.25736,2.25735.63667,1.43355-2.03638,2.03639-3.34322-8.536,1.968-1.968L22.7493,39.4982l-2.07092,2.07091Zm-1.99427-.89079-2.07091-.91634.917,2.07022Z"/>
        <path class="cls-1" d="M21.69658,29.21442a3.025,3.025,0,0,1,3.93708,3.93708,4.95329,4.95329,0,0,1-1.16252,1.706l-.85695.857,1.45944,1.45944-2.00254,2.00255-5.93963-5.93963,2.8595-2.8595A4.96162,4.96162,0,0,1,21.69658,29.21442Zm1.53195,3.4323A1.059,1.059,0,0,0,22.2017,31.6199a1.26242,1.26242,0,0,0-.79342.42882l-.7299.72989L22.06981,34.17l.7299-.7299A1.26242,1.26242,0,0,0,23.22853,32.64672Z"/>
        <path class="cls-1" d="M30.49156,31.238a4.16688,4.16688,0,0,1-2.28635.08079A4.56729,4.56729,0,0,1,24.989,28.10266a4.16815,4.16815,0,0,1,.08045-2.2867,5.10806,5.10806,0,0,1,1.303-2.09163,5.26588,5.26588,0,0,1,1.84925-1.23882,4.05772,4.05772,0,0,1,2.00255-.23754l-.13569,2.393a2.29351,2.29351,0,0,0-1.99392.60249,1.87454,1.87454,0,0,0-.60663,1.41249,2.43743,2.43743,0,0,0,2.16378,2.16379,1.87455,1.87455,0,0,0,1.41249-.60663,2.29214,2.29214,0,0,0,.60249-1.99392l2.393-.13569a4.061,4.061,0,0,1-.23789,2.0022,5.266,5.266,0,0,1-1.23813,1.84994A5.10267,5.10267,0,0,1,30.49156,31.238Z"/>
        <path class="cls-1" d="M29.74889,20.61934l2.00255-2.00254,4.387,4.387,2.68135-2.68135,1.55266,1.55267L35.68852,26.559Z"/>
        <path class="cls-1" d="M34.98452,15.38372l2.00255-2.00255L42.9267,19.3208l-2.00255,2.00254Z"/>
        <path class="cls-1" d="M45.01,16.71955a4.167,4.167,0,0,1-2.28636.0808,4.56734,4.56734,0,0,1-3.21616-3.21617,4.16815,4.16815,0,0,1,.08045-2.2867,5.10814,5.10814,0,0,1,1.303-2.09163A5.26616,5.26616,0,0,1,42.74025,7.967a4.05762,4.05762,0,0,1,2.00255-.23755l-.13569,2.39305a2.29347,2.29347,0,0,0-1.99391.60249,1.87452,1.87452,0,0,0-.60664,1.41249,2.13163,2.13163,0,0,0,.69986,1.46358,2.132,2.132,0,0,0,1.46393.7002,1.87458,1.87458,0,0,0,1.41249-.60663,2.29219,2.29219,0,0,0,.60249-1.99392l2.393-.13569a4.061,4.061,0,0,1-.23788,2.00221,5.26642,5.26642,0,0,1-1.23813,1.84994A5.10278,5.10278,0,0,1,45.01,16.71955Z"/>
        <path class="cls-1" d="M50.65654,7.65353l.0511.95018,1.46807,1.46807L50.207,12.0405,44.26737,6.10087l1.96871-1.96871,2.15516,2.15515-.20371-4.1066L50.36824,0l.23789,4.98876,5.8212.83141L54.11059,8.13691Z"/>
      </g>
      <g>
        <path class="cls-1" d="M37.18819,41.69587l-2.25736,2.25736.63633,1.43389L33.53078,47.4235l-3.34391-8.536,1.96871-1.96871,8.53707,3.34287-2.07091,2.07091Zm-1.99426-.89079L33.123,39.88874l.917,2.07022Z"/>
        <path class="cls-1" d="M38.5879,33.50821l1.01785,1.01785,2.47764-2.47764,1.51088,1.51089-2.47763,2.47763L43.017,37.93729l-2.00255,2.00255-5.94-5.94,4.82821-4.82821,1.51089,1.51088Z"/>
        <path class="cls-1" d="M44.05279,28.04332l1.01785,1.01785,2.47763-2.47764,1.51089,1.51089-2.47764,2.47764,1.90035,1.90035L46.47932,34.475l-5.94-5.94,4.82822-4.82821,1.51088,1.51089Z"/>
        <path class="cls-1" d="M46.00355,23.07079l2.00255-2.00255,5.94,5.94-2.00255,2.00255Z"/>
        <path class="cls-1" d="M60.21681,20.73747l-2.72347-2.69032.8825,3.46234-.8825.8825-3.36842-.78859,2.613,2.613-1.82439,1.82439-5.94-5.94,1.64624-1.64623,5.10028,1.23053-1.28163-5.04918,1.64623-1.64624,5.95655,5.9234Z"/>
        <path class="cls-1" d="M64.137,16.29113a4.305,4.305,0,0,1-5.4131-5.4131A5.5389,5.5389,0,0,1,62.169,7.433,4.306,4.306,0,0,1,67.582,12.84605a5.18665,5.18665,0,0,1-1.32375,2.122A5.17985,5.17985,0,0,1,64.137,16.29113Zm.993-3.8007a1.84294,1.84294,0,0,0-.03867-.99713A2.57261,2.57261,0,0,0,63.521,9.923a1.84665,1.84665,0,0,0-.99644-.038,1.89435,1.89435,0,0,0-1.3493,1.34931,1.84665,1.84665,0,0,0,.038.99644,2.57265,2.57265,0,0,0,1.57027,1.57027,1.843,1.843,0,0,0,.99713.03867A1.89435,1.89435,0,0,0,65.13,12.49043Z"/>
        <path class="cls-1" d="M73.23268,2.64756A2.01315,2.01315,0,0,1,74.4204,3.258a1.938,1.938,0,0,1,.56486,1.85477,4.77632,4.77632,0,0,1-1.43838,2.29465L70.20331,10.751l-5.94-5.94L67.437,1.6373a4.43318,4.43318,0,0,1,2.21938-1.37,1.85652,1.85652,0,0,1,1.73531.52136,1.94825,1.94825,0,0,1,.53862.95432,2.10244,2.10244,0,0,1-.0808,1.14973A2.5213,2.5213,0,0,1,73.23268,2.64756ZM67.63245,4.24269l.8825.8825.93361-.9336q.65358-.65359.212-1.0945-.44125-.44124-1.0945.212Zm4.53957.80516q-.46611-.46611-1.12833.19611l-1.205,1.205.93291.93292,1.205-1.205Q72.63848,5.515,72.172,5.04785Z"/>
      </g>
    </g>
  </g>
</svg>
